<svg width="16" height="16" viewBox="0 0 16 16" fill="none" xmlns="http://www.w3.org/2000/svg">
<rect width="16" height="16" rx="8" fill="black"/>
<path d="M3.58085 5.00002C3.47044 5.00013 3.36432 5.0005 3.2637 5.00104C3.05665 5.00215 2.92871 5.20901 3.04273 5.37422L7.31948 11.5712C7.70636 12.1318 8.59869 12.1452 9.00571 11.5966L9.7289 10.6217C8.87839 9.47981 7.23953 7.20619 6.49322 6.15123C6.28092 5.85112 5.94625 5.58049 5.58364 5.37483C5.22513 5.17151 4.86462 5.04599 4.60546 5.01189L4.60113 5.01179C4.58818 5.01147 4.56905 5.01099 4.54454 5.01043C4.49551 5.00929 4.42495 5.00779 4.33916 5.00626C4.16744 5.00321 3.93525 5.00014 3.69264 5L3.58085 5.00002ZM5.98076 5.01345C6.35284 5.23911 6.70989 5.53459 6.95474 5.8807C7.66528 6.8851 9.18603 8.9957 10.06 10.1754L11.7947 7.83698C11.558 7.83525 11.3347 7.79126 11.1253 7.71219C10.7353 7.56494 10.4119 7.3034 10.14 7.00759C9.6078 6.42853 9.20163 5.62764 8.888 5.13534L8.87219 5.11038C8.85134 5.07723 8.83181 5.04519 8.81438 5.01566L5.98076 5.01345ZM10.3951 5.00325C10.0272 5.00368 9.69039 5.0052 9.43953 5.00734C9.76895 5.54298 10.1041 6.18987 10.561 6.68699C10.8015 6.94861 11.0572 7.14555 11.3356 7.25065C11.6019 7.35118 11.9064 7.37454 12.272 7.26594C12.88 6.98035 13.1598 6.31666 12.9072 5.73796L12.9068 5.73711C12.7362 5.34178 12.3004 5.05581 11.8264 5.00688C11.8194 5.00685 11.8101 5.00681 11.7986 5.00677C11.7713 5.00665 11.7317 5.00647 11.6828 5.00628C11.5848 5.00589 11.4492 5.00538 11.2985 5.00488C10.9969 5.00389 10.6356 5.00297 10.3951 5.00325Z" fill="white"/>
</svg>
